# xmcd
#
# Track frame offsets: 
#        182
#        22840
#        51560
#        74202
#        92487
#        111302
#        129877
#        151720
#        172765
#
# Disc length: 2815 seconds
#
# Revision: 2
# Processed by: cddbd v1.5.2PL0 Copyright (c) Steve Scherf et al.
# Submitted via: ExactAudioCopyFreeDBPlugin 1.0
#
DISCID=6c0afd09
DTITLE=Buddy Guy - Breaking Out
DYEAR=1988
DGENRE=Blues
TTITLE0=I Didn't Know My Mother Had a Son Like Me
TTITLE1=Have You Ever Been Lonesome
TTITLE2=She Winked Her Eye
TTITLE3=Boogie Family Style
TTITLE4=Break Out All Over You
TTITLE5=You Called Me In My Dreams
TTITLE6=Me And My Guitar
TTITLE7=You Can Make It If You Try
TTITLE8=Feeling Sexy
EXTD=
EXTT0=
EXTT1=
EXTT2=
EXTT3=
EXTT4=
EXTT5=
EXTT6=
EXTT7=
EXTT8=
PLAYORDER=
